<?xml version="1.0" standalone="no"?>
<!DOCTYPE svg PUBLIC "-//W3C//DTD SVG 20010904//EN"
 "http://www.w3.org/TR/2001/REC-SVG-20010904/DTD/svg10.dtd">
<svg version="1.0" xmlns="http://www.w3.org/2000/svg"
 width="32.000000pt" height="32.000000pt" viewBox="0 0 32.000000 32.000000"
 preserveAspectRatio="xMidYMid meet">

<g transform="translate(0.000000,32.000000) scale(0.100000,-0.100000)"
fill="#000000" stroke="none">
<path d="M110 260 c-11 -11 -20 -33 -20 -49 0 -23 5 -30 25 -33 14 -3 25 -1
25 3 0 5 -7 9 -16 9 -15 0 -15 3 1 26 14 22 15 28 4 35 -11 7 -10 9 4 9 9 0
17 5 17 10 0 16 -18 12 -40 -10z"/>
<path d="M170 272 c0 -5 7 -13 16 -16 10 -4 14 -1 12 6 -5 15 -28 23 -28 10z"/>
<path d="M201 236 c-8 -10 -9 -16 -1 -21 16 -10 12 -28 -6 -21 -8 3 -12 2 -9
-4 3 -6 15 -10 26 -10 14 0 19 7 19 29 0 35 -13 47 -29 27z"/>
<path d="M125 140 c3 -5 16 -10 28 -9 21 0 21 1 2 9 -28 12 -37 12 -30 0z"/>
</g>
</svg>
