<?xml version="1.0" standalone="no"?>
<!DOCTYPE svg PUBLIC "-//W3C//DTD SVG 20010904//EN"
 "http://www.w3.org/TR/2001/REC-SVG-20010904/DTD/svg10.dtd">
<svg version="1.0" xmlns="http://www.w3.org/2000/svg"
 width="37.000000pt" height="32.000000pt" viewBox="0 0 37.000000 32.000000"
 preserveAspectRatio="xMidYMid meet">

<g transform="translate(0.000000,32.000000) scale(0.100000,-0.100000)"
fill="#000000" stroke="none">
<path d="M107 280 c-54 -43 -70 -101 -42 -154 12 -22 13 -31 4 -37 -18 -11 32
-55 78 -69 83 -25 170 28 180 111 l6 44 -30 -28 c-16 -15 -37 -27 -46 -27 -15
0 -22 -11 -18 -32 1 -10 -5 -10 -64 7 -45 12 -47 14 -17 14 17 1 32 5 32 9 0
14 -36 52 -49 52 -16 0 -13 12 10 40 17 21 19 22 10 3 -14 -29 -14 -33 5 -33
26 0 13 52 -16 67 l-25 13 28 0 c22 0 28 4 25 18 -5 25 -40 26 -71 2z m8 -178
c-3 -3 -11 0 -18 7 -9 10 -8 11 6 5 10 -3 15 -9 12 -12z m175 -27 c0 -13 -68
-45 -95 -44 -25 0 -22 3 18 13 27 7 53 18 60 25 12 12 17 14 17 6z"/>
<path d="M200 264 c0 -8 5 -12 10 -9 14 9 12 -9 -2 -23 -10 -10 -10 -17 0 -32
15 -24 15 -33 2 -25 -5 3 -10 1 -10 -4 0 -6 5 -11 12 -11 9 0 9 -3 0 -12 -38
-38 10 -37 72 2 33 22 46 35 42 46 -3 9 -6 20 -6 25 0 5 -5 9 -12 9 -6 0 -19
7 -28 15 -16 14 -19 13 -34 -11 -17 -24 -17 -27 0 -45 9 -10 12 -19 7 -19 -6
0 -18 11 -26 24 -15 22 -15 26 3 49 17 22 18 26 4 31 -25 10 -34 7 -34 -10z"/>
</g>
</svg>
